:version 1.10
:name ASF
:units
  mass 1
  length 1
  angle deg
:documentation
  ASF file generated by Kaydara
:root
  axis xyz
  order  tx ty tz rx ry rz
  position 0 0 0
  orientation 0 0 0
:bonedata
  begin
    id 1
    name RightUpLegDummy
    direction -0.65628 -0.754516 0.00165102
    length 4.76918
    axis 0 0 0 xyz
  end
  begin
    id 2
    name RightUpLeg
    direction -0.145584 -0.923362 0.355256
    length 17.9961
    axis -24.7611 -13.1006 1.78531 xyz
    dof rx ry rz
  end
  begin
    id 3
    name RightLeg
    direction 0.263379 0.172355 -0.949171
    length 13.3386
    axis 89.6202 -21.1929 12.3855 xyz
    dof rx ry rz
  end
  begin
    id 4
    name RightFoot
    direction 0.224283 -0.968777 -0.105675
    length 5.86697
    axis 56.995 -39.6905 17.3365 xyz
    dof rx ry rz
  end
  begin
    id 5
    name RightToes
    direction -0.0806345 -0.9037 0.420506
    length 4.75197
    axis 146.825 -39.7828 17.6019 xyz
    dof rx ry rz
  end
  begin
    id 6
    name SpineDummy
    direction -3.39852e-014 1 9.33296e-014
    length 8.13779
    axis 0 0 0 xyz
  end
  begin
    id 7
    name Spine
    direction -0.156609 0.733703 0.661176
    length 7.14978
    axis 41.2365 5.68757 17.0844 xyz
    dof rx ry rz
  end
  begin
    id 8
    name Spine1
    direction 0 0 0
    length 0
    axis 42.8809 47.8308 -3.36039 xyz
    dof rx ry rz
  end
  begin
    id 9
    name HEadDummy
    direction 0.546431 0.701947 0.456819
    length 3.55512
    axis 42.8809 47.8308 -3.36039 xyz
  end
  begin
    id 10
    name HEad
    direction 0.23444 0.828559 0.508457
    length 7.35827
    axis 51.1864 49.2662 27.4903 xyz
    dof rx ry rz
  end
  begin
    id 11
    name LeftShoulder1Dummy
    direction 0.431183 0.475873 -0.766568
    length 2.49352
    axis 42.8809 47.8308 -3.36039 xyz
  end
  begin
    id 12
    name LeftShoulder1
    direction 0.268187 -0.383402 -0.883786
    length 4.48604
    axis -119.517 0.106469 35.1736 xyz
    dof rx ry rz
  end
  begin
    id 13
    name LeftArm
    direction 0.380567 -0.703221 -0.600541
    length 10.1142
    axis -5.41825 36.2925 7.8293 xyz
    dof rx ry rz
  end
  begin
    id 14
    name LeftForeArm
    direction 0.541071 -0.732356 -0.413396
    length 9.39839
    axis 4.65387 33.7604 7.81644 xyz
    dof rx ry rz
  end
  begin
    id 15
    name LeftHand
    direction 0.847511 -0.389379 -0.360707
    length 3.66142
    axis 7.65593 21.1436 -24.6758 xyz
    dof rx ry rz
  end
  begin
    id 16
    name RightShoulderDummy
    direction -0.692546 0.541855 0.476208
    length 2.49352
    axis 42.8809 47.8308 -3.36039 xyz
  end
  begin
    id 17
    name RightShoulder
    direction -0.870808 -0.316653 0.376065
    length 4.48602
    axis 141.571 51.133 -100.254 xyz
    dof rx ry rz
  end
  begin
    id 18
    name RightArm
    direction 0.366897 -0.87275 0.322015
    length 10.1142
    axis 92.3258 71.2036 138.917 xyz
    dof rx ry rz
  end
  begin
    id 19
    name RightForeArm
    direction 0.702487 -0.694568 0.155197
    length 9.39835
    axis 153.863 41.5092 -176.604 xyz
    dof rx ry rz
  end
  begin
    id 20
    name RightHand
    direction 0.79502 -0.601276 0.0800636
    length 3.66142
    axis 154.247 4.59222 142.9 xyz
    dof rx ry rz
  end
  begin
    id 21
    name LeftUpLegDummy
    direction 0.65628 -0.754516 0.00165102
    length 4.76919
    axis 0 0 0 xyz
  end
  begin
    id 22
    name LeftUpLeg
    direction -0.1277 -0.689368 0.713067
    length 17.9961
    axis -48.3385 -17.8675 0.791927 xyz
    dof rx ry rz
  end
  begin
    id 23
    name LeftLeg
    direction 0.109849 -0.991246 -0.0732378
    length 13.3386
    axis -2.05791 -7.30784 1.72042 xyz
    dof rx ry rz
  end
  begin
    id 24
    name LeftFoot
    direction 0.0448355 -0.272614 0.961078
    length 5.86697
    axis -18.7733 -7.89606 10.2113 xyz
    dof rx ry rz
  end
  begin
    id 25
    name LeftToes
    direction -0.18506 0.293668 0.937823
    length 4.75197
    axis 71.2267 -7.89606 10.2113 xyz
    dof rx ry rz
  end
:hierarchy
  begin
    root RightUpLegDummy SpineDummy LeftUpLegDummy
    RightUpLegDummy RightUpLeg
    RightUpLeg RightLeg
    RightLeg RightFoot
    RightFoot RightToes
    SpineDummy Spine
    Spine Spine1
    Spine1 HEadDummy LeftShoulder1Dummy RightShoulderDummy
    HEadDummy HEad
    LeftShoulder1Dummy LeftShoulder1
    LeftShoulder1 LeftArm
    LeftArm LeftForeArm
    LeftForeArm LeftHand
    RightShoulderDummy RightShoulder
    RightShoulder RightArm
    RightArm RightForeArm
    RightForeArm RightHand
    LeftUpLegDummy LeftUpLeg
    LeftUpLeg LeftLeg
    LeftLeg LeftFoot
    LeftFoot LeftToes
  end

:SAMPLES-PER-SECOND 30
:FULLY-SPECIFIED
:DEGREES
297
root  1.69127 31.5929 -12.1621 46.3696 -22.9285 120.783
RightUpLeg  -13.9352 0.995625 -36.2401
RightLeg  -102.775 -15.5493 -12.772
RightFoot  18.329 2.16419 -11.3255
RightToes  -1.27222e-014 -6.36111e-015 6.36111e-015
Spine  -10.9014 -44.1486 -36.7698
Spine1  -35.9974 -14.0512 90.8319
HEad  -2.94546 -38.4656 -11.8018
LeftShoulder1  6.36111e-015 -1.33558e-015 6.49777e-015
LeftArm  -62.7279 -40.4499 39.6193
LeftForeArm  4.91812 9.1557 2.40008
LeftHand  2.13245 8.14874 -6.38811
RightShoulder  -4.77083e-015 -6.36111e-015 -3.18055e-015
RightArm  -5.48595 42.9211 -64.5622
RightForeArm  8.83842 -17.9316 3.28997
RightHand  18.0311 -8.44933 -65.214
LeftUpLeg  14.2341 8.01912 66.317
LeftLeg  -48.695 9.24502 -19.3151
LeftFoot  4.45678 0.820355 -2.42016
LeftToes  9.54166e-015 -1.91609e-011 -2.3878e-011
298
root  0.182715 31.8617 -11.0977 59.2046 -31.3461 106.372
RightUpLeg  -19.9637 -1.89747 -39.1626
RightLeg  -103.803 -16.0211 -12.0696
RightFoot  18.3652 2.36476 -11.6509
RightToes  -1.27222e-014 -6.36111e-015 6.36111e-015
Spine  -10.054 -43.7884 -35.1812
Spine1  -35.1771 -13.7412 94.3527
HEad  -5.15979 -32.4379 -10.8707
LeftShoulder1  6.36111e-015 -1.33558e-015 6.49777e-015
LeftArm  -63.239 -42.2783 32.2899
LeftForeArm  0.227823 14.346 3.39789
LeftHand  1.89138 9.14561 -9.77056
RightShoulder  -4.77083e-015 -6.36111e-015 -3.18055e-015
RightArm  -8.25892 38.372 -56.5538
RightForeArm  3.94459 -24.411 -0.85096
RightHand  20.9819 -10.7244 -67.7435
LeftUpLeg  15.2151 7.64717 66.8431
LeftLeg  -48.7966 10.6207 -21.086
LeftFoot  8.84282 1.35302 -3.58484
LeftToes  9.54166e-015 -1.91609e-011 -2.3878e-011
299
root  -0.705609 32.428 -9.5344 76.2354 -35.7039 87.916
RightUpLeg  -25.2264 -5.26852 -42.7484
RightLeg  -104.719 -15.7385 -9.80602
RightFoot  18.431 3.63069 -13.668
RightToes  -1.27222e-014 -6.36111e-015 6.36111e-015
Spine  -12.4362 -40.9837 -30.6092
Spine1  -33.7424 -13.2639 93.3269
HEad  -9.53272 -27.5279 -10.8037
LeftShoulder1  6.36111e-015 -1.33558e-015 6.49777e-015
LeftArm  -61.5476 -43.4593 23.6336
LeftForeArm  -10.1755 26.8236 4.68345
LeftHand  2.06128 8.95021 -8.38917
RightShoulder  -4.77083e-015 -6.36111e-015 -3.18055e-015
RightArm  -13.6367 33.0537 -51.5749
RightForeArm  2.78991 -27.871 -4.5112
RightHand  22.5041 -12.1446 -68.3512
LeftUpLeg  16.7205 7.29657 66.3667
LeftLeg  -48.4328 9.17046 -19.9765
LeftFoot  14.0826 2.68728 -6.25718
LeftToes  9.54166e-015 -1.91609e-011 -2.3878e-011
300
root  -0.879016 32.9566 -7.8173 94.8179 -34.1107 67.9391
RightUpLeg  -28.3434 -7.05144 -46.6263
RightLeg  -105.084 -14.7119 -4.25355
RightFoot  17.5455 5.59883 -16.6671
RightToes  -1.27222e-014 -6.36111e-015 6.36111e-015
Spine  -16.1954 -37.4237 -25.7379
Spine1  -31.0789 -13.7126 89.1157
HEad  -14.8832 -24.0183 -9.11782
LeftShoulder1  6.36111e-015 -1.33558e-015 6.49777e-015
LeftArm  -58.7531 -43.8562 16.4471
LeftForeArm  -22.2941 37.1012 2.8446
LeftHand  1.84103 6.72161 -5.20032
RightShoulder  -4.77083e-015 -6.36111e-015 -3.18055e-015
RightArm  -17.8851 27.8072 -48.1116
RightForeArm  0.0801997 -30.3848 -6.53632
RightHand  22.5653 -12.255 -68.262
LeftUpLeg  17.1733 6.86741 65.2572
LeftLeg  -47.9594 5.98467 -16.3515
LeftFoot  20.0781 4.391 -8.9159
LeftToes  9.54166e-015 -1.91609e-011 -2.3878e-011
301
root  -0.454104 33.312 -6.23492 109.489 -26.6282 49.8202
RightUpLeg  -28.1699 -4.94493 -50.8849
RightLeg  -104.253 -12.5994 5.22158
RightFoot  16.156 7.28148 -19.2716
RightToes  -1.27222e-014 -6.36111e-015 6.36111e-015
Spine  -18.3346 -32.5894 -21.2912
Spine1  -29.0639 -13.8452 81.5556
HEad  -19.3068 -22.8635 -5.88112
LeftShoulder1  6.36111e-015 -1.33558e-015 6.49777e-015
LeftArm  -56.888 -43.2846 12.0518
LeftForeArm  -29.0717 34.5271 -0.377549
LeftHand  2.50783 8.83293 -5.47127
RightShoulder  -4.77083e-015 -6.36111e-015 -3.18055e-015
RightArm  -17.5144 25.7939 -44.6046
RightForeArm  -5.86366 -37.3882 -6.82782
RightHand  23.5105 -13.8639 -67.1513
LeftUpLeg  17.4294 6.80532 64.4943
LeftLeg  -47.143 3.843 -13.953
LeftFoot  23.9293 5.18177 -9.70035
LeftToes  9.54166e-015 -1.91609e-011 -2.3878e-011
302
root  0.391977 33.5115 -4.99393 117.471 -14.8635 34.6567
RightUpLeg  -25.5301 -1.87047 -53.5202
RightLeg  -102.678 -10.7623 12.493
RightFoot  15.7335 8.50573 -21.311
RightToes  -1.27222e-014 -6.36111e-015 6.36111e-015
Spine  -17.6257 -26.0768 -16.8621
Spine1  -27.9628 -13.2153 70.4681
HEad  -23.9746 -24.2239 -1.96172
LeftShoulder1  6.36111e-015 -1.33558e-015 6.49777e-015
LeftArm  -60.8636 -37.2447 7.3906
LeftForeArm  -26.1783 19.2351 -3.02208
LeftHand  4.06382 11.6732 -2.37327
RightShoulder  -4.77083e-015 -6.36111e-015 -3.18055e-015
RightArm  -16.4813 22.4714 -40.7373
RightForeArm  -9.74124 -43.0077 -7.21682
RightHand  23.5849 -15.911 -63.3898
LeftUpLeg  18.7292 6.90326 63.8194
LeftLeg  -46.1169 2.43139 -12.8212
LeftFoot  26.5612 6.24053 -11.0564
LeftToes  9.54166e-015 -1.91609e-011 -2.3878e-011
303
root  1.55063 33.6249 -4.10274 119.412 -0.51198 21.2171
RightUpLeg  -22.4811 -0.921287 -53.2775
RightLeg  -101.659 -10.5254 14.4102
RightFoot  15.5747 9.39452 -22.8246
RightToes  -1.27222e-014 -6.36111e-015 6.36111e-015
Spine  -15.2689 -18.8899 -11.4762
Spine1  -26.5245 -13.1081 55.1188
HEad  -29.1212 -27.7055 1.64065
LeftShoulder1  6.36111e-015 -1.33558e-015 6.49777e-015
LeftArm  -66.6338 -35.1684 6.26619
LeftForeArm  -22.6262 7.98257 -5.1484
LeftHand  6.53292 13.313 6.15296
RightShoulder  -4.77083e-015 -6.36111e-015 -3.18055e-015
RightArm  -16.7818 15.2392 -36.4579
RightForeArm  -10.4195 -44.2403 -8.68069
RightHand  22.518 -15.5019 -61.6993
LeftUpLeg  20.4415 6.68202 62.3231
LeftLeg  -45.3871 0.977213 -11.4226
LeftFoot  30.883 8.6802 -14.0791
LeftToes  9.54166e-015 -1.91609e-011 -2.3878e-011
304
root  3.0484 33.5666 -3.62538 116.406 14.612 7.24908
RightUpLeg  -20.7749 -0.260176 -52.5165
RightLeg  -101.59 -10.5408 14.6357
RightFoot  15.2739 9.73487 -23.4023
RightToes  -1.27222e-014 -6.36111e-015 6.36111e-015
Spine  -12.4111 -11.3833 -4.46265
Spine1  -24.2686 -13.4361 35.1761
HEad  -32.46 -32.7494 3.89782
LeftShoulder1  6.36111e-015 -1.33558e-015 6.49777e-015
LeftArm  -69.6535 -38.0241 7.62798
LeftForeArm  -19.5842 5.15893 -3.7671
LeftHand  10.6176 17.0195 14.9934
RightShoulder  -4.77083e-015 -6.36111e-015 -3.18055e-015
RightArm  -15.3427 7.7491 -31.4417
RightForeArm  -12.3602 -46.6377 -9.11616
RightHand  23.0042 -15.3163 -63.176
LeftUpLeg  21.4825 6.76992 59.8337
LeftLeg  -44.6946 -0.991052 -9.73477
LeftFoot  35.2033 10.4931 -15.6635
LeftToes  9.54166e-015 -1.91609e-011 -2.3878e-011
